<?xml version="1.0" standalone="no"?>
<!DOCTYPE svg PUBLIC "-//W3C//DTD SVG 20010904//EN"
 "http://www.w3.org/TR/2001/REC-SVG-20010904/DTD/svg10.dtd">
<svg version="1.0" xmlns="http://www.w3.org/2000/svg"
 width="2176.000000pt" height="1952.000000pt" viewBox="0 0 2176.000000 1952.000000"
 preserveAspectRatio="xMidYMid meet">

<defs>
<linearGradient id="fire" gradientUnits="userSpaceOnUse" x1="4000" y1="12819" x2="4000" y2="3235">
<stop offset="0" stop-color="#ffd21a"/>
<stop offset="0.30" stop-color="#ff9412"/>
<stop offset="0.62" stop-color="#ff5714"/>
<stop offset="1" stop-color="#d61b0e"/>
</linearGradient>
</defs>
<g transform="translate(0.000000,1952.000000) scale(0.100000,-0.100000)"
fill="#000000" stroke="none">
<path d="M12315 17424 c-11 -2 -45 -9 -75 -15 -112 -21 -150 -31 -144 -40 3
-5 -1 -6 -9 -3 -18 6 -221 -84 -280 -125 -130 -89 -253 -229 -325 -371 -63
-123 -119 -294 -142 -434 -10 -61 -23 -129 -29 -151 -6 -22 -11 -74 -11 -115
0 -41 -7 -97 -15 -124 -32 -105 -13 -136 129 -221 127 -76 156 -126 120 -211
-9 -22 -20 -49 -25 -62 l-9 -22 -72 36 c-163 82 -176 74 -258 -161 -56 -162
-72 -195 -94 -200 -12 -3 -70 -10 -131 -15 -60 -5 -144 -19 -185 -29 l-75 -20
-35 23 c-55 38 -73 39 -134 12 -97 -43 -329 -188 -369 -230 l-37 -40 6 -70 6
-71 -41 -33 c-108 -86 -257 -352 -299 -532 -6 -25 -20 -83 -31 -130 -34 -147
-35 -454 -1 -691 5 -36 13 -111 16 -165 6 -84 4 -101 -9 -112 -24 -20 -113
-32 -292 -41 -166 -8 -197 -15 -254 -58 -68 -52 -90 -162 -101 -523 -6 -194
-13 -280 -25 -320 -15 -53 -31 -172 -59 -437 -6 -67 -14 -124 -17 -127 -4 -4
-305 48 -339 59 -18 6 -38 107 -61 305 -22 196 -65 316 -153 433 -120 159
-249 245 -441 294 -64 17 -271 14 -515 -6 -641 -53 -600 -48 -667 -81 -82 -41
-113 -89 -113 -177 0 -69 23 -112 80 -151 34 -24 39 -24 175 -18 77 3 190 10
250 15 61 6 200 17 310 25 110 9 216 18 236 22 51 8 193 -12 244 -35 73 -32
128 -92 164 -177 34 -80 35 -85 112 -629 58 -410 56 -397 73 -535 9 -69 18
-143 21 -165 3 -22 14 -107 24 -190 32 -249 78 -578 102 -720 5 -33 18 -112
29 -175 11 -63 29 -187 40 -275 11 -88 34 -243 52 -345 17 -102 42 -275 57
-385 l26 -200 75 4 c41 2 76 6 77 10 2 3 30 4 63 3 39 -3 60 0 60 7 0 16 332
14 540 -4 186 -16 471 -62 481 -77 3 -5 12 -6 20 -3 18 7 354 -103 438 -143
35 -17 71 -28 80 -25 9 4 13 3 9 -2 -7 -8 93 -56 119 -58 7 0 14 -6 17 -13 3
-8 12 -11 23 -7 10 3 15 3 11 -1 -3 -4 46 -35 110 -68 140 -72 353 -215 533
-356 163 -129 434 -408 560 -578 192 -260 374 -576 468 -814 l30 -75 697 -3
c387 -1 702 -6 707 -11 5 -5 9 -508 9 -1162 0 -635 4 -1172 8 -1194 4 -22 8
-34 9 -26 1 10 4 11 14 3 7 -6 51 -14 98 -18 46 -3 100 -13 119 -21 19 -8 59
-23 88 -33 l52 -19 0 959 c0 858 2 960 16 974 8 9 22 16 30 16 21 0 66 -25 85
-46 20 -25 93 -213 189 -489 45 -130 131 -349 141 -359 5 -6 9 -16 9 -23 0 -8
7 -30 16 -51 10 -20 18 -41 20 -47 90 -268 213 -594 236 -622 5 -7 22 -45 38
-85 101 -260 126 -327 166 -443 24 -71 58 -161 74 -200 112 -266 143 -345 180
-460 67 -206 107 -274 186 -320 44 -26 52 -27 128 -22 45 3 99 13 121 21 22 8
76 22 120 31 318 69 392 86 485 110 58 15 139 37 180 50 41 13 91 26 110 30
19 4 70 18 113 31 43 13 82 22 87 19 5 -3 10 -1 12 3 3 8 299 83 438 112 90
19 180 39 260 60 41 11 91 22 110 25 36 6 97 39 138 74 27 23 42 70 41 126 -1
115 -81 195 -194 195 -33 0 -89 -9 -125 -20 -36 -11 -103 -29 -150 -40 -47
-10 -104 -26 -127 -34 -23 -8 -63 -17 -90 -21 -70 -9 -185 -44 -178 -54 3 -5
-5 -7 -17 -4 -19 4 -20 3 -8 -7 12 -9 8 -10 -20 -5 -27 5 -32 4 -20 -5 12 -9
9 -10 -12 -6 -17 4 -28 2 -28 -4 0 -6 -4 -9 -8 -6 -5 3 -24 2 -43 -3 -19 -5
-90 -21 -159 -36 -69 -15 -154 -36 -189 -46 -35 -10 -91 -24 -125 -30 -33 -6
-97 -22 -141 -34 -44 -12 -120 -33 -170 -45 -49 -13 -137 -36 -195 -51 -58
-15 -115 -28 -126 -29 -25 0 -27 6 -77 170 -42 138 -96 291 -107 305 -9 11
-86 197 -130 315 -16 41 -39 100 -53 130 -13 30 -41 107 -61 170 -21 63 -46
134 -57 157 -10 24 -19 47 -19 52 0 5 -27 74 -59 152 -82 197 -154 388 -186
489 -14 47 -42 120 -61 162 -19 43 -34 80 -34 84 0 3 -7 20 -15 37 -8 18 -28
68 -44 112 -41 113 -77 186 -86 177 -5 -4 -5 -1 0 7 5 9 2 19 -10 27 -10 7
-15 20 -12 29 4 8 2 15 -3 15 -5 0 -14 26 -20 58 -34 175 -108 310 -207 379
-102 71 -140 86 -237 93 -134 10 -126 -16 -128 384 -3 550 0 516 -53 594 -29
43 -34 77 -8 68 48 -19 115 -27 174 -21 105 10 116 4 130 -69 11 -53 19 -67
61 -108 l48 -47 0 -119 c0 -129 14 -201 55 -282 14 -27 32 -71 41 -97 9 -26
40 -95 69 -153 29 -58 60 -131 68 -162 8 -31 50 -121 93 -200 94 -173 177
-341 192 -388 17 -54 59 -258 66 -325 9 -78 31 -155 58 -202 48 -85 152 -167
257 -203 42 -14 47 -20 68 -75 13 -33 35 -84 49 -114 28 -57 80 -189 121 -306
23 -62 27 -97 37 -315 7 -135 16 -251 20 -258 8 -14 22 -86 36 -187 5 -38 24
-117 42 -175 l33 -105 54 -27 c67 -34 135 -37 236 -9 76 21 116 31 245 62 47
11 117 32 156 45 67 23 72 28 93 72 13 29 37 57 59 71 43 29 51 29 352 16 178
-7 204 -6 300 13 96 20 499 147 645 204 90 35 276 140 292 165 28 42 27 93 -1
155 -14 31 -26 63 -26 70 0 45 -119 166 -187 189 -36 13 -107 14 -453 6 -120
-2 -386 46 -485 88 -16 7 -48 18 -70 25 -22 7 -51 18 -65 25 -14 7 -61 28
-104 46 -56 23 -93 47 -128 81 -58 59 -72 85 -114 213 -46 144 -112 326 -126
353 -11 21 -9 29 10 60 51 82 76 148 80 207 3 52 -4 82 -53 230 -32 94 -89
251 -127 350 -39 99 -85 221 -103 270 -18 50 -46 122 -63 160 -55 127 -80 200
-132 381 -28 98 -66 225 -86 282 -38 112 -38 120 7 190 16 25 29 56 29 69 0
42 -108 455 -140 538 -62 159 -248 463 -300 490 -15 8 -49 34 -78 60 -37 34
-71 53 -124 70 l-73 24 -33 -20 c-18 -10 -38 -19 -43 -19 -6 0 -38 26 -72 58
-110 102 -99 96 -211 103 -92 5 -106 8 -147 36 -24 16 -96 58 -159 93 -63 35
-162 91 -220 124 -58 33 -130 73 -160 88 -30 15 -61 33 -68 39 -7 6 -16 9 -19
6 -3 -3 -14 3 -26 13 -11 11 -24 17 -29 14 -4 -3 -8 -1 -8 4 0 4 -26 19 -57
32 -63 26 -202 93 -387 189 -109 56 -154 76 -116 51 10 -6 11 -10 3 -10 -7 0
-21 8 -31 18 -17 16 -155 82 -174 82 -12 0 -230 94 -383 165 -135 62 -130 54
-100 165 16 59 17 75 5 168 -7 58 -18 109 -26 117 -8 7 -14 24 -13 37 1 23 1
23 9 -2 l8 -25 2 25 c1 14 2 29 1 33 -1 4 6 15 14 23 8 9 13 19 10 24 -7 11
14 65 21 57 4 -3 13 0 21 8 10 10 23 13 41 8 15 -4 40 -7 55 -7 16 1 24 -2 17
-6 -13 -8 83 -37 150 -45 51 -7 96 12 94 38 -1 9 2 15 6 14 4 -1 8 2 8 7 0 5
7 13 16 18 9 5 14 14 10 19 -3 5 -1 8 5 7 10 -3 30 30 89 147 8 17 30 59 48
95 19 36 34 74 34 86 0 11 6 40 14 65 15 46 22 139 58 714 29 456 30 620 4
699 -37 113 -123 205 -250 269 -31 16 -56 29 -56 30 0 28 63 354 70 361 6 6
14 5 22 -1 21 -17 280 -102 328 -107 9 -1 20 -5 25 -8 9 -5 54 -15 105 -24 8
-1 67 -13 130 -27 63 -14 118 -23 122 -21 5 3 8 1 8 -3 0 -5 12 -10 27 -11 16
-1 66 -9 113 -17 52 -9 147 -15 245 -15 139 0 171 4 242 25 136 39 390 154
508 229 28 18 55 35 62 39 8 5 22 -14 42 -56 45 -94 66 -117 107 -117 44 0
148 35 329 109 77 32 181 73 230 91 155 55 155 56 99 190 -19 47 -51 122 -70
168 -20 46 -34 91 -32 99 2 9 33 37 69 62 37 25 108 82 159 126 161 141 147
134 285 135 66 1 126 1 133 1 8 -1 12 -22 12 -70 0 -39 3 -72 8 -75 4 -2 75
-6 157 -7 l150 -3 3 61 3 61 65 49 c36 26 75 55 87 65 19 14 22 26 23 89 0 49
5 74 13 77 7 2 24 14 39 27 22 19 27 31 26 72 0 26 -4 62 -8 79 -7 26 -5 31
18 42 24 11 26 16 26 76 0 55 -4 69 -26 95 l-25 30 20 28 c64 89 13 171 -117
189 -29 3 -52 10 -52 14 0 4 9 18 20 31 18 20 24 21 40 11 28 -17 79 -15 86 3
4 8 14 15 24 15 10 0 20 -7 24 -15 3 -9 18 -15 36 -15 18 0 33 6 36 15 4 8 16
15 29 15 13 0 25 -7 29 -15 3 -9 18 -15 36 -15 18 0 33 6 36 15 4 8 17 15 30
15 15 0 24 -6 24 -15 0 -22 53 -19 75 5 22 24 41 26 53 5 7 -13 24 -15 88 -13
l79 3 3 118 3 117 39 0 c36 0 40 -3 40 -25 l0 -25 180 0 180 0 0 25 0 25 368
-2 367 -3 0 -35 0 -35 68 -3 c62 -3 67 -1 67 18 0 13 7 20 20 20 11 0 20 -7
20 -15 0 -13 40 -15 303 -15 173 0 308 4 317 10 24 15 21 236 -3 273 l-17 27
-290 0 -290 0 -14 -35 c-8 -19 -22 -35 -30 -35 -12 0 -16 10 -16 35 l0 35 -70
0 -70 0 0 -35 0 -35 -102 0 c-57 0 -220 -3 -364 -7 l-261 -6 -6 24 c-3 13 -9
47 -13 76 -6 51 -6 51 22 55 27 3 29 6 32 55 l3 52 -33 3 c-25 2 -34 8 -36 26
-4 26 -36 30 -50 5 -13 -22 -38 -11 -59 25 -9 16 -30 36 -46 45 l-29 17 7 93
c3 50 11 115 16 142 6 28 9 106 7 175 l-3 125 -85 3 c-117 3 -117 3 -102 -105
14 -104 19 -424 8 -470 -6 -26 -13 -33 -32 -33 -33 0 -55 46 -51 107 l2 48
-70 0 c-65 0 -70 -2 -73 -22 -2 -13 -6 -23 -8 -23 -16 0 -44 23 -44 35 0 11
-12 15 -40 15 -39 0 -39 -1 -33 -31 5 -28 4 -30 -18 -27 -18 2 -25 10 -27 31
-3 24 -8 27 -38 27 -27 0 -37 -5 -46 -25 -13 -30 -43 -29 -43 0 0 15 -8 21
-33 23 -27 3 -34 -1 -42 -22 -13 -35 -50 -36 -50 -1 0 22 -4 25 -39 25 -33 0
-40 -4 -43 -22 -2 -15 -11 -24 -25 -26 -19 -3 -23 1 -23 22 0 24 -4 26 -40 26
-36 0 -40 -2 -40 -26 0 -32 -30 -30 -45 4 -7 16 -18 22 -43 22 -30 0 -32 -2
-30 -27 2 -22 -2 -29 -19 -31 -17 -3 -22 2 -25 25 -3 24 -8 28 -39 31 -30 3
-37 -1 -47 -23 -15 -33 -42 -33 -42 1 0 23 -3 25 -37 22 -31 -2 -39 -7 -41
-25 -3 -17 -10 -23 -28 -23 -19 0 -24 5 -24 26 0 23 -3 25 -37 22 -31 -2 -39
-7 -41 -25 -5 -33 -40 -30 -48 3 -6 22 -11 25 -43 22 -31 -3 -36 -6 -34 -25 4
-32 -30 -30 -47 2 -9 18 -22 25 -42 25 -25 0 -28 -4 -28 -31 0 -27 -3 -30 -27
-27 -22 2 -29 9 -31 31 -3 26 -6 28 -40 25 -32 -3 -37 -7 -40 -31 -4 -35 -33
-33 -42 3 -4 19 -13 26 -38 28 -29 3 -32 0 -32 -22 0 -22 -4 -26 -30 -26 -25
0 -30 4 -30 25 0 22 -4 25 -35 25 -29 0 -36 -4 -41 -25 -8 -32 -41 -34 -46 -2
-2 18 -10 23 -40 25 -35 3 -38 1 -38 -22 0 -22 -4 -26 -30 -26 -25 0 -30 4
-30 25 0 22 -4 25 -35 25 -31 0 -35 -3 -35 -25 0 -20 -5 -25 -25 -25 -20 0
-25 5 -25 25 0 22 -4 25 -34 25 -30 0 -35 -3 -38 -27 -2 -20 -9 -28 -23 -28
-14 0 -21 8 -23 28 -3 24 -8 27 -38 27 -30 0 -37 -4 -46 -31 -12 -36 -39 -36
-48 1 -9 37 -62 41 -78 5 -15 -32 -30 -32 -42 1 -8 21 -15 25 -42 22 -26 -2
-34 -8 -36 -26 -5 -31 -46 -27 -50 6 -3 17 -10 22 -36 22 -26 0 -34 -5 -43
-30 -13 -36 -43 -32 -43 6 0 21 -5 24 -35 24 -35 0 -37 -2 -51 -48 -6 -20 -44
4 -44 28 0 17 -7 20 -40 20 -38 0 -40 -2 -40 -30 0 -35 -12 -38 -40 -10 -11
11 -20 25 -20 30 0 6 -14 10 -30 10 -27 0 -30 -3 -28 -27 4 -40 -27 -43 -47
-4 -21 41 -65 43 -93 4 -22 -31 -54 -27 -45 6 4 18 1 21 -24 21 -18 0 -38 -9
-49 -21 -10 -11 -27 -25 -37 -31 -16 -8 -18 -6 -15 19 3 25 0 28 -29 31 -24 2
-34 -2 -43 -18 -16 -30 -26 -18 -34 39 -8 64 -32 83 -96 76 -57 -7 -90 9 -113
58 -9 20 -21 37 -26 37 -5 0 -10 47 -13 106 -4 118 -8 126 -73 122 l-40 -3 -1
-110 c-2 -140 -1 -132 -24 -138 -27 -7 -39 -45 -48 -146 l-7 -86 -105 -3
c-133 -3 -148 -7 -156 -36 -3 -13 -15 -27 -27 -30 -26 -7 -77 -8 -77 -1 0 2
21 36 46 75 58 90 74 129 74 182 0 62 -17 115 -58 182 -51 85 -54 142 -13 220
22 41 31 72 31 105 0 33 5 53 18 64 15 13 118 36 168 37 16 0 44 67 44 106 0
24 -8 43 -25 60 -19 19 -25 36 -25 67 -1 69 -27 227 -49 296 -12 35 -21 72
-21 83 0 43 -35 96 -118 179 -48 48 -111 115 -141 149 -79 89 -253 216 -330
241 -20 6 -66 24 -103 40 -70 31 -222 74 -298 85 -55 8 -367 14 -395 8z m5655
-2449 c19 -22 4 -45 -29 -45 -21 0 -30 6 -34 22 -3 12 -4 25 -1 30 9 13 51 9
64 -7z m1793 -108 c41 -18 50 -49 20 -66 -39 -20 -329 -19 -357 2 -15 11 -16
17 -5 40 9 19 22 28 48 32 20 4 43 8 51 10 37 10 208 -3 243 -18z m-3575 -253
c23 -7 32 -47 12 -59 -21 -13 -8 -35 28 -44 52 -15 89 -13 96 4 3 8 12 15 21
15 9 0 18 -7 21 -15 8 -19 41 -19 74 0 32 18 50 19 50 1 0 -8 12 -16 28 -18
21 -3 16 -6 -28 -16 -68 -16 -84 -27 -99 -73 -7 -22 -40 -64 -87 -109 l-75
-73 -132 -37 -132 -37 -3 118 c-3 130 8 172 50 184 84 26 118 63 118 130 0 37
9 42 58 29z m422 -104 c0 -5 -12 -10 -27 -10 -22 0 -25 2 -13 10 20 13 40 13
40 0z m-3087 -181 c13 -8 86 -12 199 -13 l177 -1 -97 -47 c-53 -26 -134 -77
-180 -113 l-84 -66 -66 52 c-37 28 -106 81 -154 118 -48 36 -88 69 -88 74 0
12 269 8 293 -4z m1537 -133 c44 -20 55 -59 43 -164 -7 -62 -15 -99 -26 -109
-13 -13 -48 -19 -154 -25 -148 -9 -263 1 -313 27 -60 31 -46 37 77 30 l118 -7
28 29 c35 38 45 91 23 125 -9 13 -41 42 -71 64 -30 21 -55 42 -55 46 0 11 302
-3 330 -16z m94 -362 c36 -14 9 -33 -126 -93 -212 -93 -237 -103 -303 -113
-67 -12 -159 2 -191 28 -19 14 -19 15 0 27 40 24 65 60 73 101 l9 41 144 5
c234 9 377 10 394 4z m-1789 -3674 c-3 -5 -14 -10 -23 -10 -15 0 -15 2 -2 10
20 13 33 13 25 0z"/>
<path fill="url(#fire)" d="M780 12817 c3 -2 55 -34 117 -71 222 -131 382 -277 503 -458 188
-281 266 -550 310 -1068 33 -387 89 -621 222 -925 95 -218 176 -337 362 -534
158 -168 240 -271 284 -360 32 -65 37 -84 40 -165 5 -108 -7 -157 -52 -223
-94 -137 -264 -147 -424 -26 -90 69 -130 130 -259 388 -130 261 -197 367 -286
458 -158 160 -306 217 -562 217 -139 0 -232 -13 -357 -51 -67 -20 -71 -22 -48
-32 89 -36 212 -100 255 -131 123 -89 250 -245 314 -387 79 -175 111 -327 141
-669 21 -247 38 -357 75 -497 84 -317 249 -607 473 -829 286 -283 587 -432
1067 -527 318 -64 348 -79 541 -283 113 -119 157 -158 206 -184 35 -18 78 -44
96 -57 38 -29 196 -105 324 -156 107 -43 253 -142 319 -216 28 -31 64 -84 81
-118 61 -124 35 -291 -52 -335 -39 -20 -106 -23 -160 -8 -41 11 -126 94 -197
191 -26 37 -88 115 -138 173 -85 101 -95 109 -184 154 -52 25 -102 48 -110 49
-67 13 -167 13 -241 0 -101 -17 -294 -77 -283 -87 4 -4 44 -19 88 -35 110 -38
196 -88 265 -152 48 -44 68 -74 110 -161 28 -58 66 -147 85 -196 44 -118 188
-407 233 -469 41 -57 142 -141 232 -193 36 -20 84 -48 106 -61 110 -63 295
-101 549 -113 122 -5 167 -12 240 -34 85 -27 94 -32 156 -97 58 -59 70 -78 89
-141 36 -118 21 -263 -34 -325 -28 -31 -35 -41 -31 -45 3 -2 -13 -21 -34 -42
-59 -58 -154 -86 -311 -93 -70 -3 -136 -2 -146 2 -11 5 -21 9 -24 10 -85 21
-169 66 -231 123 -30 26 -85 70 -124 97 -38 28 -72 53 -73 57 -2 5 -8 6 -13 2
-5 -3 -12 3 -16 13 -4 10 -20 32 -35 48 -34 36 -35 28 -9 -80 19 -78 31 -111
85 -227 14 -31 26 -61 26 -67 0 -11 118 -188 158 -236 59 -71 142 -157 193
-198 63 -51 166 -110 178 -103 5 3 19 -3 31 -14 14 -12 31 -18 42 -14 10 3 18
2 18 -3 0 -8 15 -12 58 -15 6 -1 12 -5 12 -9 0 -4 8 -8 18 -7 16 0 68 -8 116
-18 71 -16 106 -19 246 -19 115 0 174 5 230 18 193 46 248 60 290 74 25 8 56
17 69 19 38 8 118 52 134 75 14 19 11 27 -28 102 -239 450 -349 1189 -280
1887 46 462 135 765 355 1215 263 536 648 973 1171 1328 251 170 481 284 784
387 l110 38 6 48 c7 58 -7 222 -26 314 -66 325 -343 621 -647 695 -35 9 -121
18 -193 21 l-130 5 52 -29 c126 -72 210 -153 271 -262 89 -158 78 -362 -23
-448 -82 -69 -190 -84 -287 -39 -109 49 -178 143 -232 315 -24 77 -34 138 -70
457 -23 192 -56 303 -127 421 -86 143 -194 239 -354 319 -122 61 -257 94 -425
105 -74 4 -136 7 -138 6 -1 -2 38 -32 86 -69 238 -177 336 -354 336 -603 0
-97 -3 -117 -25 -160 -57 -116 -175 -133 -347 -49 -207 102 -370 351 -508 775
-104 320 -167 463 -265 606 -111 160 -231 255 -498 392 -347 179 -473 294
-562 514 -17 40 -36 106 -42 146 -6 39 -14 72 -17 72 -8 0 -85 -141 -108 -200
-30 -75 -42 -182 -31 -277 12 -115 72 -230 183 -353 149 -164 196 -252 196
-363 0 -125 -43 -197 -150 -256 -58 -32 -74 -36 -157 -39 -146 -7 -278 30
-480 132 -126 63 -224 136 -333 246 -191 192 -296 354 -512 790 -78 157 -159
314 -182 350 -142 228 -307 403 -516 545 -93 64 -307 170 -410 204 -259 84
-358 102 -610 108 -107 3 -193 3 -190 0z"/>
<path fill="url(#fire)" d="M6026 11580 c-76 -117 -100 -214 -94 -368 4 -103 7 -116 41 -185 29
-58 52 -87 109 -138 40 -35 92 -84 116 -109 41 -44 42 -45 58 -25 80 99 109
329 53 423 -11 20 -56 69 -98 109 -99 91 -141 166 -150 266 l-6 72 -29 -45z"/>
<path d="M9030 8300 c-801 -62 -1507 -384 -2060 -939 -382 -383 -634 -797
-804 -1319 -64 -198 -99 -347 -134 -577 -23 -153 -26 -199 -26 -465 0 -318 12
-448 70 -728 266 -1301 1308 -2329 2594 -2562 502 -90 1052 -54 1520 100 772
254 1438 804 1837 1520 494 884 566 1919 203 2892 -216 577 -600 1083 -1114
1465 -328 245 -811 461 -1219 548 -266 57 -625 83 -867 65z m560 -635 c363
-57 713 -194 1025 -399 541 -356 914 -863 1108 -1506 38 -127 66 -255 94 -430
28 -177 25 -587 -5 -770 -47 -285 -134 -554 -262 -805 -140 -276 -292 -487
-505 -701 -674 -676 -1582 -925 -2478 -679 -639 175 -1213 615 -1556 1193
-236 397 -360 793 -391 1245 -40 578 127 1187 463 1694 419 633 1116 1075
1832 1162 50 6 101 13 115 15 61 11 461 -3 560 -19z"/>
<path fill="url(#fire)" d="M1507 6869 c-44 -10 -257 -117 -257 -128 0 -5 30 -16 67 -25 95 -23
143 -55 260 -173 134 -136 196 -168 323 -167 91 0 136 16 238 86 23 16 63 38
88 49 25 11 44 25 41 32 -2 6 -28 16 -58 22 -76 15 -109 36 -197 118 -117 109
-194 159 -287 183 -56 15 -160 17 -218 3z"/>
<path fill="url(#fire)" d="M3030 5144 c-74 -20 -113 -25 -172 -22 -43 2 -78 2 -78 0 0 -6 111
-131 157 -178 60 -61 194 -125 264 -127 102 -2 161 53 167 158 3 50 0 66 -20
95 -65 96 -158 118 -318 74z"/>
<path d="M13655 3623 c-11 -2 -29 -8 -40 -13 -11 -4 -62 -18 -113 -29 -125
-28 -270 -107 -365 -200 -112 -108 -215 -259 -254 -371 -18 -52 -33 -106 -33
-121 0 -14 -4 -29 -10 -35 -30 -30 -19 -367 16 -484 49 -167 99 -246 249 -402
151 -156 233 -203 454 -259 260 -66 537 -22 761 122 119 76 289 260 334 360
13 30 37 82 54 116 16 34 36 86 42 115 7 29 16 66 21 82 15 50 10 202 -11 319
-38 216 -97 332 -259 506 -114 123 -171 165 -280 209 -38 16 -75 33 -83 38 -7
6 -54 20 -103 32 -72 17 -119 22 -225 21 -74 -1 -144 -3 -155 -6z m344 -353
c64 -17 83 -28 150 -87 138 -123 190 -183 236 -275 37 -73 44 -99 50 -172 12
-142 -4 -237 -61 -351 -60 -121 -110 -178 -225 -254 -125 -83 -257 -126 -367
-119 -42 3 -120 18 -172 33 -78 24 -110 40 -182 93 -98 71 -185 171 -223 255
-14 30 -33 95 -41 144 -22 119 -13 217 27 335 28 80 42 105 107 181 112 133
214 201 352 234 75 18 254 9 349 -17z"/>
</g>
</svg>
