<svg xmlns="http://www.w3.org/2000/svg" viewBox="0 0 273 273" width="273" height="273" fill="none">
  <rect width="273" height="273" rx="58" fill="#0E4DA8"/>
  <g transform="translate(32.34,26.88) scale(0.84)" fill="#ffffff">
    <path fill-rule="evenodd" d="M 25.5,58.099999999999994 C 25.200000000000003,58.89999999999998 25.1,92.0 25.200000000000003,131.79999999999998 L 25.5,204.1 L 38.0,204.2 L 50.5,204.2 L 50.800000000000004,139.1 L 51.0,74.0 L 66.8,74.0 C 85.30000000000001,74.0 87.7,74.89999999999998 91.2,82.79999999999998 C 94.5,90.1 94.2,105.6 90.80000000000001,113.1 C 87.5,120.4 83.9,122.1 71.2,122.79999999999998 L 61.900000000000006,123.29999999999998 L 62.2,130.4 L 62.5,137.5 L 72.5,138.0 C 84.4,138.6 88.30000000000001,140.4 92.0,147.1 C 94.4,151.39999999999998 94.5,152.1 95.0,177.8 L 95.5,204.2 L 107.0,204.2 L 118.5,204.1 L 118.80000000000001,178.2 C 119.10000000000001,148.2 118.5,145.39999999999998 110.30000000000001,135.4 L 105.9,129.9 L 110.4,124.9 C 117.2,117.39999999999998 119.30000000000001,109.89999999999998 118.80000000000001,95.69999999999999 C 118.5,85.6 118.10000000000001,83.89999999999998 115.2,77.79999999999998 C 111.30000000000001,69.69999999999999 104.2,63.0 96.2,59.89999999999998 C 90.80000000000001,57.79999999999998 88.7,57.599999999999994 58.300000000000004,57.19999999999999 C 31.8,56.89999999999998 25.900000000000002,57.0 25.5,58.099999999999994"/>
    <path fill-rule="evenodd" d="M 138.4,58.29999999999998 C 138.1,59.099999999999994 138.0,62.79999999999998 138.20000000000002,66.6 L 138.5,73.5 L 166.20000000000002,74.0 L 193.9,74.5 L 165.9,132.0 L 137.9,189.39999999999998 L 138.20000000000002,196.7 L 138.5,204.1 L 180.5,204.1 L 222.5,204.1 L 222.8,196.5 L 223.10000000000002,189.0 L 195.5,189.0 C 180.20000000000002,189.0 168.0,188.6 168.0,188.1 C 168.0,187.3 175.60000000000002,171.39999999999998 198.0,125.5 C 203.60000000000002,113.89999999999998 211.60000000000002,97.5 215.70000000000002,89.0 L 223.10000000000002,73.6 L 222.8,65.5 L 222.5,57.5 L 180.70000000000002,57.19999999999999 C 146.20000000000002,57.0 138.9,57.19999999999999 138.4,58.29999999999998"/>
  </g>
</svg>
